<svg height="512pt" viewBox="0 -2 512 512" width="512pt" xmlns="http://www.w3.org/2000/svg"><path d="m500.183594 375.335938c2.703125.976562 5.714844.570312 8.066406-1.082032s3.75-4.347656 3.75-7.222656v-44.402344c0-3.011718-1.535156-5.8125-4.070312-7.433594l-216.621094-138.636718v-141.242188c.003906-9.96875-4.207032-19.472656-11.589844-26.164062-7.386719-6.695313-17.253906-9.957032-27.175781-8.984375-18.421875 2.285156-32.160157 18.089843-31.851563 36.648437v139.742188l-216.621094 138.636718c-2.535156 1.621094-4.070312 4.425782-4.070312 7.433594v44.402344c0 2.875 1.398438 5.570312 3.75 7.222656s5.363281 2.058594 8.066406 1.085938l208.875-75.195313v119.449219c-.003906 2.621094-1.167968 5.105469-3.179687 6.78125l-46.609375 38.84375c-2.011719 1.675781-3.179688 4.160156-3.179688 6.78125v28.140625c0 2.792969 1.320313 5.417969 3.558594 7.082031 2.238281 1.667969 5.132812 2.175782 7.808594 1.375l74.375-22.3125c1.652344-.496094 3.417968-.496094 5.070312 0l74.375 22.3125c2.675782.800782 5.570313.292969 7.808594-1.375 2.238281-1.664062 3.558594-4.289062 3.558594-7.082031v-28.136719c0-2.621094-1.167969-5.105468-3.179688-6.78125l-46.609375-38.84375c-2.011719-1.675781-3.175781-4.160156-3.179687-6.78125v-119.453125zm0 0"/></svg>